<svg fill="#0D76D6" width="116.66666666666667" height="25" viewBox="0 0 70 15" xmlns="http://www.w3.org/2000/svg"><path d="M7.3504875 6.58339534c0-3.53999999-.60508125-5.00744185-2.26861875-5.00744185-1.46719125 0-2.208285 1.02872093-2.208285 4.59906977 0 3.52476743.57474 4.97720934 2.268735 4.97720934 1.4973 0 2.20816875-1.013721 2.20816875-4.56883726M0 6.49269769C0 2.51386047 2.737455.94060465 5.17266.94060465c2.60132625 0 5.0514112 1.55825582 5.0514112 5.31000001 0 4.00895344-2.73745495 5.53697674-5.17265995 5.53697674C2.45020125 11.7875814 0 10.1235116 0 6.49269769M14.9528771 11.1824651c-.51429 0-.92256-.2269767-1.1949337-.5446511V5.13106976c.2420325-.09069768.6201937-.27232556 1.2251587-.27232556 1.14948 0 1.7998988.75639533 1.7998988 2.91976744 0 2.76860466-.6353063 3.40395346-1.8301238 3.40395346m1.3460588-7.63976742c-1.058805 0-1.90557.49918604-2.5409925 1.04383721h-.0755625l.0291787-.90523256c.0026738-.08244186-.0684712-.14813954-.1503112-.13883721l-2.0987775.23732559c-.06231.00709302-.109275.05976743-.109275.12244185V14.8565349c0 .0733721.0638212.1305814.1368262.1223256l2.1587625-.2439535c.0621938-.0069768.1091588-.0596512.1091588-.1223256v-2.0533721c0-.5294186-.0149963-.9227907-.0149963-.9227907.3327075.0906977.831885.1511628 1.14948.1511628 2.5257638 0 4.3708838-1.3766279 4.3708838-4.5233721 0-2.76848839-1.527525-3.72151162-2.964375-3.72151162M22.5421073 6.74982559l2.5862137-.1361628c0-1.83046511-.2418-2.49616279-1.1493637-2.49616279-.771435 0-1.3764.72616279-1.43685 2.63232559m-2.3896351.89255812c0-2.63232558 1.9509076-4.09976743 3.9473851-4.09976743 2.0628562 0 3.3574162 1.01941862 3.4311187 3.68651162.0015113.05186048-.0406875.09558139-.0927675.09558139h-4.801125c-.05208 0-.0941625.04372095-.0928837.09569767.0676575 2.40302329 1.001145 3.06616284 2.5387837 3.06616284.75051 0 1.3555913-.1744186 1.8619763-.3990698.0373162-.0166279.0805612-.0068605.1071825.0243023l.2011125.236628c.0303412.0356976.0299925.0884883-.0020925.1224418-.5517225.5819768-1.67493 1.3167442-3.151305 1.3167442-2.6316675 0-3.9473851-1.5733721-3.9473851-4.14523259M33.7484561 3.54262791c-1.1040262 0-2.102265.49930231-2.9038087 1.07406977h-.0605663l.02976-.95383721c.002325-.07313954-.0606825-.13116279-.1332225-.12302326l-2.1164475.24c-.0621937.00697673-.109275.05953489-.109275.12220931v7.58406978c0 .066279.0537075.1198837.1198538.1198837h2.16504c.0661462 0 .1198537-.0536047.1198537-.1198837V5.14623255c.3327075-.07569765.8772225-.19662791 1.4067413-.19662791.7107525 0 1.0435762.28744188 1.0435762 1.21023258v5.32627908c0 .066279.0537075.1198837.1198538.1198837h2.1801525c.0661462 0 .11997-.0536047.11997-.1198837V5.56995349c0-1.36162789-.6957563-2.02732558-1.9814813-2.02732558M42.218466 10.259593c-.2420325.090814-.6504187.332907-1.2704962.332907-1.14948 0-1.754445-.77162792-1.754445-3.1467442 0-2.49627904.7562062-3.29802322 1.84512-3.29802322.5597437 0 .9226762.31767438 1.1798212.63534881V10.259593zm2.4047475-8.19953486c0-.78197675.0266213-1.50046512.0406875-1.79534884.0040688-.08627907-.0691687-.1555814-.1550775-.14790697L42.330531.36424419c-.0634725.00569767-.112065.0588372-.112065.12267441v2.1177907c0 .54453489.030225 1.10430233.030225 1.10430233-.317595-.09081396-.7410937-.16639535-1.1493637-.16639535-2.3595263 0-4.386345 1.25569768-4.386345 4.40244186 0 2.75325586 1.467075 3.84255816 2.9644912 3.84255816 1.0586888 0 1.9056863-.4236047 2.556105-.9832558h.06045l-.03069.835c-.0034875.0889535.0741675.1593023.1621688.1468604l2.0750625-.2317441c.0703312-.0097675.1226437-.0700001.1226437-.1410465V2.06005814zM51.2969981 7.76343023c0-3.05593024-.5897362-3.63081394-1.6183162-3.63081394-.9529013 0-1.5124125.69593021-1.5124125 3.29802326 0 3.10139535.4990612 3.76686045 1.6030875 3.76686045.90768 0 1.5276412-.5294186 1.5276412-3.43406977m-5.671605-.07558141c0-2.90476743 2.0568113-4.14523254 4.0987425-4.14523254 2.1930563 0 4.113855 1.3161628 4.113855 4.0695349 0 2.90465112-2.0267025 4.17558142-4.113855 4.17558142-2.1930562 0-4.0987425-1.3315117-4.0987425-4.09988378M60.3179516 7.76343023c0-3.05593024-.5897362-3.63081394-1.6183162-3.63081394-.9529013 0-1.5124125.69593021-1.5124125 3.29802326 0 3.10139535.4991775 3.76686045 1.6032037 3.76686045.9075638 0 1.527525-.5294186 1.527525-3.43406977m-5.6717212-.07558141c0-2.90476743 2.0569275-4.14523254 4.0987425-4.14523254 2.1930562 0 4.113855 1.3161628 4.113855 4.0695349 0 2.90465112-2.0265863 4.17558142-4.113855 4.17558142-2.19294 0-4.0987425-1.3315117-4.0987425-4.09988378M68.4796898 3.54262791c-.8772225 0-1.7393325.66569769-2.2080525 1.1648837h-.0605663l.0294113-1.01662789c.0025575-.08651163-.0721913-.15534884-.1582163-.14569767l-2.091105.23476745c-.06231.00697673-.109275.05953489-.109275.12232556v7.56139534c0 .0786047.063705.1423256.14229.1423256h2.1200513c.078585 0 .1425225-.0637209.1425225-.1423256V5.32786046c.2116912-.1967442.5595112-.39348836.8316525-.39348836.136245 0 .2270362.03034883.3177112.19674416.28737.46895352.5148713.74000003 1.1645925.74000003.5899687 0 1.117395-.46767443 1.117395-1.19383721 0-.74139537-.51243-1.13465117-1.2384112-1.13465117"></path></svg>