<svg xmlns="http://www.w3.org/2000/svg" width="8" height="10" viewBox="0 0 8 10" fill="none"> <path fill-rule="evenodd" clip-rule="evenodd" d="M0.666992 3.83829C0.666992 1.08735 2.45219 0 4.03977 0C5.73592 0 7.3335 1.07725 7.3335 3.67163C7.3335 6.44328 5.5483 7.49982 3.96072 7.49982C2.26457 7.49982 0.666992 6.34934 0.666992 3.83829ZM5.46021 3.90091C5.46021 1.4535 5.06546 0.438878 3.98072 0.438878C3.02408 0.438878 2.54076 1.14997 2.54076 3.62062C2.54076 6.05793 2.91551 7.06195 4.02024 7.06195C4.99641 7.06043 5.45973 6.35944 5.45973 3.90142L5.46021 3.90091ZM7.29045 9.6019C7.31795 9.63651 7.33309 9.67913 7.3335 9.72312V9.89615C7.3335 9.95337 7.28649 9.99976 7.22851 9.99976H0.771977C0.713995 9.99976 0.666992 9.95337 0.666992 9.89615V9.7226C0.667255 9.67892 0.682005 9.63653 0.708986 9.6019L1.57458 8.46841C1.64591 8.38094 1.75427 8.33101 1.86801 8.3332H6.13143C6.24517 8.33101 6.35353 8.38094 6.42486 8.46841L7.29045 9.6019Z" fill="#1C85E8"/> </svg>